<?xml version="1.0" encoding="utf-8"?>
<!-- Generator: Adobe Illustrator 26.3.1, SVG Export Plug-In . SVG Version: 6.00 Build 0)  -->
<svg version="1.1" id="Layer_1" xmlns="http://www.w3.org/2000/svg" xmlns:xlink="http://www.w3.org/1999/xlink" x="0px" y="0px"
	 viewBox="0 0 189.8 41" style="enable-background:new 0 0 189.8 41;" xml:space="preserve">
<style type="text/css">
	.st0{fill:#FFFFFF;}
</style>
<path class="st0" d="M20.1,30.3c0.1-1.4-0.5-2.8-1.4-3.9c-1-1.1-2.2-2-3.5-2.7c-1.5-0.8-3-1.5-4.6-2.2c-1.6-0.7-3.2-1.5-4.6-2.5
	c-1.4-1-2.6-2.2-3.5-3.6c-1-1.6-1.5-3.5-1.4-5.4C0.8,7.3,2,4.5,4.2,2.7C6.3,0.9,9.4,0,13.3,0c2.1,0,4.2,0.2,6.3,0.5
	c1.5,0.2,3,0.7,4.4,1.3L22.6,6c-1.2-0.5-2.5-1-3.8-1.2c-1.9-0.4-3.8-0.6-5.7-0.6c-2.5,0-4.4,0.5-5.6,1.7C5.3,7.8,5,11.1,6.9,13.3
	c0.1,0.1,0.1,0.1,0.2,0.2c1,1.1,2.2,2,3.5,2.6c1.4,0.8,3,1.5,4.6,2.3c1.6,0.7,3.2,1.6,4.6,2.6c1.4,1,2.6,2.2,3.5,3.6
	c1,1.6,1.5,3.4,1.4,5.2c0,1.6-0.3,3.1-0.9,4.6c-0.6,1.4-1.5,2.6-2.7,3.5c-1.3,1-2.7,1.8-4.2,2.3c-1.8,0.6-3.8,0.8-5.7,0.8
	c-2.4,0-4.7-0.2-7-0.6C2.8,40,1.4,39.6,0,38.9l1.6-4.2c1.2,0.6,2.5,1.1,3.9,1.4c1.9,0.5,3.8,0.7,5.7,0.7c1.2,0,2.4-0.1,3.5-0.4
	c1-0.2,2-0.6,2.8-1.2c0.8-0.5,1.4-1.2,1.9-2.1C19.9,32.3,20.1,31.3,20.1,30.3z"/>
<path class="st0" d="M43.6,1.1c1.5-0.4,3.1-0.6,4.6-0.7c1.7-0.1,3.3-0.2,4.9-0.2c1.8,0,3.6,0.2,5.3,0.5c1.7,0.3,3.4,0.9,4.9,1.9
	c1.5,0.9,2.7,2.2,3.6,3.7c1,1.9,1.5,4,1.4,6.1c0.1,2.1-0.4,4.2-1.3,6.1c-0.8,1.6-2,3-3.5,4c-1.5,1.1-3.2,1.8-4.9,2.2
	c-1.9,0.5-3.8,0.7-5.7,0.7H52h-1.4c-0.5,0-0.9,0-1.4-0.1s-0.8-0.1-1-0.1v15.1h-4.7L43.6,1.1z M53.3,4.3c-1,0-1.9,0-2.8,0.1
	c-0.7,0-1.4,0.1-2.1,0.3v16.4c0.3,0.1,0.6,0.1,0.9,0.1l1.3,0.1h1.3h0.9c1.3,0,2.6-0.1,3.8-0.4c1.2-0.2,2.4-0.7,3.4-1.3
	c1-0.7,1.9-1.6,2.5-2.7c0.7-1.4,1-2.9,0.9-4.5c0-1.4-0.3-2.7-0.9-3.9c-0.6-1-1.4-1.9-2.3-2.5c-1-0.6-2.1-1.1-3.3-1.3
	C55.8,4.4,54.5,4.3,53.3,4.3z"/>
<path class="st0" d="M101.9,29.4H87.4l-4,11h-4.7l15-40.3h2.2l15,40.3h-5L101.9,29.4z M88.9,25.3h11.6l-4.4-12.1l-1.4-6h0l-1.4,6.1
	L88.9,25.3z"/>
<path class="st0" d="M127.6,0.7h21.6v4.2h-16.9v13.5h15.8v4.2h-15.8v17.7h-4.7V0.7z"/>
<path class="st0" d="M168.2,0.7h21.6v4.2h-16.9v13.5h15.8v4.2h-15.8v17.7h-4.7V0.7z"/>
</svg>
