<?xml version="1.0" encoding="utf-8"?>
<!-- Generator: Adobe Illustrator 26.3.1, SVG Export Plug-In . SVG Version: 6.00 Build 0)  -->
<svg version="1.1" id="Layer_1" xmlns="http://www.w3.org/2000/svg" xmlns:xlink="http://www.w3.org/1999/xlink" x="0px" y="0px"
	 viewBox="0 0 189.9 41.1" style="enable-background:new 0 0 189.9 41.1;" xml:space="preserve">
<style type="text/css">
	.st0{fill:#3366FF;}
</style>
<path class="st0" d="M20.1,30.3c0-1.6-0.5-2.9-1.4-3.9c-0.9-1-2.1-1.9-3.5-2.7c-1.4-0.8-3-1.5-4.6-2.2S7.4,20,5.9,19.1
	s-2.6-2.1-3.5-3.6S1,12.3,1,10.1C1,7,2.1,4.5,4.2,2.7C6.4,0.9,9.4,0,13.4,0c2.3,0,4.4,0.2,6.3,0.5s3.4,0.8,4.4,1.3L22.7,6
	c-0.9-0.4-2.1-0.8-3.8-1.2s-3.6-0.6-5.7-0.6c-2.5,0-4.4,0.6-5.6,1.7C6.3,7,5.7,8.3,5.7,9.8s0.5,2.7,1.4,3.7c0.9,1,2.1,1.9,3.5,2.6
	c1.4,0.8,3,1.5,4.6,2.3s3.2,1.6,4.6,2.6s2.6,2.2,3.5,3.6s1.4,3.1,1.4,5.2c0,1.7-0.3,3.2-0.9,4.6c-0.6,1.4-1.5,2.5-2.7,3.5
	c-1.2,1-2.6,1.7-4.2,2.3s-3.6,0.8-5.7,0.8c-2.8,0-5.2-0.2-7-0.7S1,39.5,0,39l1.6-4.2c0.9,0.5,2.2,1,3.8,1.4s3.6,0.7,5.7,0.7
	c1.2,0,2.4-0.1,3.5-0.4s2-0.6,2.8-1.2s1.4-1.2,1.9-2.1C19.9,32.4,20.1,31.4,20.1,30.3L20.1,30.3z"/>
<path class="st0" d="M43.7,1.1c1.4-0.3,3-0.6,4.7-0.7s3.3-0.2,4.9-0.2c1.7,0,3.5,0.2,5.3,0.5s3.4,1,4.9,1.9s2.7,2.2,3.6,3.7
	c0.9,1.6,1.4,3.6,1.4,6.1s-0.4,4.5-1.3,6.1c-0.9,1.7-2,3-3.5,4c-1.4,1-3.1,1.8-4.9,2.2c-1.8,0.5-3.8,0.7-5.7,0.7h-0.9
	c-0.4,0-0.9,0-1.4,0c-0.5,0-0.9,0-1.4-0.1c-0.5,0-0.8-0.1-1-0.1v15.1h-4.7L43.7,1.1L43.7,1.1z M53.3,4.3c-1,0-1.9,0-2.8,0.1
	c-0.9,0-1.6,0.1-2.2,0.3v16.4c0.2,0.1,0.5,0.1,0.9,0.1c0.4,0,0.8,0,1.3,0.1c0.5,0,0.9,0,1.3,0h0.9c1.3,0,2.6-0.1,3.8-0.4
	s2.4-0.7,3.4-1.3s1.8-1.5,2.5-2.7c0.6-1.2,0.9-2.7,0.9-4.5c0-1.6-0.3-2.8-0.9-3.9s-1.4-1.9-2.3-2.5S58.2,5,57,4.7
	C55.8,4.5,54.6,4.3,53.3,4.3L53.3,4.3z"/>
<path class="st0" d="M102,29.4H87.4l-3.9,11h-4.7l15-40.3h2.1L111,40.4h-5C106,40.4,102,29.4,102,29.4z M88.9,25.3h11.6l-4.4-12.1
	l-1.4-6h-0.1l-1.4,6.1L88.9,25.3L88.9,25.3z"/>
<path class="st0" d="M127.6,0.7h21.6v4.2h-16.9v13.6h15.8v4.2h-15.8v17.8h-4.7L127.6,0.7L127.6,0.7z"/>
<path class="st0" d="M168.3,0.7h21.6v4.2H173v13.6h15.8v4.2H173v17.8h-4.7V0.7z"/>
</svg>
