<?xml version="1.0" encoding="utf-8"?>
<!-- Generator: Adobe Illustrator 26.3.1, SVG Export Plug-In . SVG Version: 6.00 Build 0)  -->
<svg version="1.1" id="a" xmlns="http://www.w3.org/2000/svg" xmlns:xlink="http://www.w3.org/1999/xlink" x="0px" y="0px"
	 viewBox="0 0 5895.4 1278.9" style="enable-background:new 0 0 5895.4 1278.9;" xml:space="preserve">
<style type="text/css">
	.st0{fill-rule:evenodd;clip-rule:evenodd;fill:#FFFFFF;}
	.st1{fill:#FFFFFF;}
</style>
<path class="st0" d="M1216.2,376.4H828.6c65.9,55,111.1,142.5,111.1,262.4c0,447-617.7,447-617.7,0c0-229.4,165.3-342.6,324.9-334.7
	h592.2l2.3-200.9l1426.6,3L2729.3,0L631.5,0.1v0C315.7,0.2,0,213.1,0,638.8c0,853.5,1263.5,853.5,1263.5,0
	C1263.5,539.9,1246.4,452.4,1216.2,376.4L1216.2,376.4z"/>
<g>
	<path class="st1" d="M1714.1,163.7v115.9h-274.8v115.9h197.9v115.9h-197.9v231.8h-138.3V163.7H1714.1L1714.1,163.7z"/>
	<path class="st1" d="M2170.5,163.7v115.9h-274.8v115.9h197.9v115.9h-197.9v231.8h-138.3V163.7H2170.5z"/>
	<path class="st1" d="M2626.8,163.7v115.9h-278.6v115.9h262.3v115.9h-262.3v115.9h278.6v115.9h-413.1V163.7H2626.8L2626.8,163.7z"/>
	<path class="st1" d="M3162.9,743.2h-153.7l-154.7-250.8h-8.6v250.8h-142.2V163.7h273.8c40.3,0,74.1,11.3,101.4,33.9
		c27.2,22.6,40.8,51.3,40.8,86.1v102.7c0,29.8-10.3,55.2-30.8,76.2c-20.5,21-46.8,34.5-78.8,40.6L3162.9,743.2L3162.9,743.2z
		 M2967.9,395.5c5.1,0,9.4-1.4,13-4.1c3.5-2.8,5.3-6.6,5.3-11.6v-84.4c0-5-1.8-8.8-5.3-11.6c-3.5-2.8-7.9-4.1-13-4.1h-128.7v115.9
		H2967.9z"/>
	<path class="st1" d="M3329.2,743.2H3187V163.7h142.2V743.2z"/>
	<path class="st1" d="M3538.6,743.2H3406V163.7h139.3l135.5,307.1h7.7V163.7h132.6v579.5h-139.3l-135.5-305.5h-7.7L3538.6,743.2
		L3538.6,743.2z"/>
	<path class="st1" d="M4303.4,323.5H4166V292c0-5-1.8-9-5.3-12s-8.2-4.5-13.9-4.5h-101.8c-5.8,0-10.3,1.5-13.5,4.5
		c-3.2,3-4.8,7-4.8,12v323.7c0,10.5,6.1,15.7,18.3,15.7h101.8c5.8,0,10.4-1.4,13.9-4.1c3.5-2.8,5.3-6.6,5.3-11.6V511.4h137.4v231.8
		h-135.5v-27.3c-19.9,21-44.5,31.5-74,31.5h-63.4c-40.4,0-74.1-11.3-101.4-34c-27.2-22.6-40.8-51.3-40.8-86.1V280.4
		c0-22.6,6.2-43.2,18.7-61.7c12.5-18.5,29.6-33,51.4-43.5c21.8-10.5,45.8-15.7,72.1-15.7h131.6c41,0,74.8,11.5,101.4,34.4
		c26.6,22.9,39.9,51.7,39.9,86.5L4303.4,323.5L4303.4,323.5z"/>
	<path class="st1" d="M4500.4,743.2h-168.1V598.3h168.1V743.2z"/>
	<path class="st1" d="M4548.4,743.2V163.7h273.8c40.3,0,74.1,11.3,101.4,33.9c27.2,22.6,40.8,51.3,40.8,86.1v107.6
		c0,34.8-13.6,63.5-40.8,86.1c-27.2,22.6-61,34-101.4,34h-131.6v231.8L4548.4,743.2L4548.4,743.2z M4811.7,395.5
		c5.1,0,9.4-1.4,13-4.1c3.5-2.8,5.3-6.6,5.3-11.6v-84.4c0-5-1.8-8.8-5.3-11.6c-3.5-2.8-7.9-4.1-13-4.1h-125.9v115.9H4811.7z"/>
	<path class="st1" d="M5466.9,743.2h-153.7l-154.7-250.8h-8.6v250.8h-142.2V163.7h273.8c40.3,0,74.1,11.3,101.4,33.9
		c27.2,22.6,40.8,51.3,40.8,86.1v102.7c0,29.8-10.3,55.2-30.8,76.2c-20.5,21-46.8,34.5-78.8,40.6L5466.9,743.2L5466.9,743.2z
		 M5271.9,395.5c5.1,0,9.4-1.4,13-4.1c3.5-2.8,5.3-6.6,5.3-11.6v-84.4c0-5-1.8-8.8-5.3-11.6c-3.5-2.8-7.9-4.1-13-4.1h-128.7v115.9
		H5271.9z"/>
	<path class="st1" d="M5622.6,747.3c-40.4,0-74-11.3-100.9-34c-26.9-22.6-40.4-51.3-40.4-86.1V279.6c0-34.8,13.5-63.5,40.4-86.1
		c26.9-22.6,60.5-33.9,100.9-33.9h131.6c40.3,0,74,11.3,100.9,33.9c26.9,22.6,40.4,51.3,40.4,86.1v347.7c0,34.8-13.5,63.5-40.4,86.1
		c-26.9,22.6-60.5,34-100.9,34L5622.6,747.3L5622.6,747.3z M5739.8,631.4c12.2,0,18.2-5.2,18.2-15.7V291.2
		c0-10.5-6.1-15.7-18.2-15.7H5637c-5.1,0-9.3,1.4-12.5,4.1s-4.8,6.6-4.8,11.6v324.5c0,5,1.6,8.8,4.8,11.6s7.4,4.1,12.5,4.1H5739.8z"
		/>
</g>
</svg>
